<svg width="50" height="34" viewBox="0 0 50 34" fill="none" xmlns="http://www.w3.org/2000/svg">
<path d="M33.0967 7.625H19.2898C18.8829 7.625 18.4927 7.78663 18.205 8.07433C17.9173 8.36203 17.7557 8.75223 17.7557 9.1591V10.6932H16.2216C15.8147 10.6932 15.4245 10.8548 15.1368 11.1425C14.8491 11.4302 14.6875 11.8204 14.6875 12.2273V22.966C14.6875 23.3729 14.8491 23.7631 15.1368 24.0508C15.4245 24.3385 15.8147 24.5001 16.2216 24.5001H30.0285C30.4354 24.5001 30.8256 24.3385 31.1133 24.0508C31.401 23.7631 31.5626 23.3729 31.5626 22.966V21.4319H33.0967C33.5036 21.4319 33.8938 21.2703 34.1815 20.9826C34.4692 20.6949 34.6308 20.3047 34.6308 19.8978V9.1591C34.6308 8.75223 34.4692 8.36203 34.1815 8.07433C33.8938 7.78663 33.5036 7.625 33.0967 7.625ZM30.0285 12.2273V13.7614H16.2216V12.2273H30.0285ZM33.0967 19.8978H31.5626V12.2273C31.5626 11.8204 31.401 11.4302 31.1133 11.1425C30.8256 10.8548 30.4354 10.6932 30.0285 10.6932H19.2898V9.1591H33.0967V19.8978Z" fill="#D9D9D9"/>
<path d="M24.6595 18.7472L21.5913 16.8296V20.6648L24.6595 18.7472Z" fill="#FCFCFC" stroke="white" stroke-width="1.5341" stroke-linecap="round" stroke-linejoin="round"/>
</svg>
