<svg width="50" height="34" viewBox="0 0 50 34" fill="none" xmlns="http://www.w3.org/2000/svg">
<path fill-rule="evenodd" clip-rule="evenodd" d="M13.7446 8.10219C13.0751 8.19453 12.5654 8.417 12.4745 8.65637C12.4397 8.74789 12.3236 9.65149 12.2164 10.6646C11.9339 13.3347 11.9263 19.3708 12.2036 20.8532C12.6767 23.3824 13.4518 24.9662 14.5491 25.6456C15.0809 25.975 15.1998 26 16.2334 26C17.484 26 17.7861 25.9072 18.9137 25.1764C20.2242 24.3271 21.4342 22.9546 22.6622 20.9245C22.9847 20.3916 23.2634 19.9705 23.2815 19.9887C23.2995 20.007 23.4189 20.5059 23.5468 21.0975C23.9755 23.0823 24.8299 24.527 25.9762 25.2054C26.6515 25.6053 27.9803 25.7072 28.9133 25.4309C31.3869 24.698 33.739 21.9035 35.89 17.1419C36.5333 15.7176 37.6138 12.6208 37.6149 12.198C37.6151 12.093 37.5357 11.9404 37.4383 11.8587C37.1909 11.6514 35.6454 11.782 35.0874 12.0575C34.664 12.2664 34.6374 12.3192 34.0058 14.2078C32.8341 17.7113 31.3652 20.6889 30.1846 21.9532C28.959 23.266 28.1461 22.9883 27.7392 21.1181C27.5976 20.467 27.6356 16.6311 27.8132 13.6526L27.8635 12.8089C27.8762 12.5962 27.7504 12.3996 27.552 12.3219C27.1089 12.1486 24.3038 12.2399 23.8923 12.4411C23.5232 12.6215 23.4747 12.7221 22.9272 14.4424C21.3689 19.3381 19.0978 23.2426 17.8081 23.2426C17.2887 23.2426 17.0254 22.839 16.7374 21.6011C16.5603 20.8399 16.5346 20.1683 16.5488 16.6718C16.5586 14.2545 16.6344 11.7965 16.7371 10.5703C16.8326 9.42843 16.8659 8.43296 16.8121 8.32771C16.6486 8.0075 15.2017 7.90107 13.7446 8.10219Z" fill="#D9D9D9"/>
</svg>
