<svg width="20" height="20" viewBox="0 0 20 20" fill="none" xmlns="http://www.w3.org/2000/svg">
<path d="M17.8128 10.0002C17.8128 10.2488 17.7141 10.4873 17.5383 10.6631C17.3624 10.8389 17.124 10.9377 16.8753 10.9377H5.39097L9.41441 14.9611C9.50181 15.0482 9.57116 15.1517 9.61848 15.2656C9.66579 15.3796 9.69015 15.5018 9.69015 15.6252C9.69015 15.7485 9.66579 15.8707 9.61848 15.9847C9.57116 16.0986 9.50181 16.2021 9.41441 16.2892C9.2375 16.4638 8.99893 16.5617 8.75035 16.5617C8.50177 16.5617 8.2632 16.4638 8.08629 16.2892L2.46129 10.6642C2.37389 10.5771 2.30454 10.4736 2.25722 10.3597C2.2099 10.2457 2.18555 10.1235 2.18555 10.0002C2.18555 9.87677 2.2099 9.7546 2.25722 9.64064C2.30454 9.52669 2.37389 9.42319 2.46129 9.3361L8.08629 3.7111C8.26241 3.53498 8.50128 3.43604 8.75035 3.43604C8.87368 3.43604 8.9958 3.46033 9.10974 3.50752C9.22368 3.55472 9.32721 3.62389 9.41441 3.7111C9.50162 3.7983 9.57079 3.90183 9.61799 4.01577C9.66518 4.12971 9.68948 4.25183 9.68948 4.37516C9.68948 4.49849 9.66518 4.62061 9.61799 4.73455C9.57079 4.84849 9.50162 4.95202 9.41441 5.03922L5.39097 9.06266H16.8753C17.124 9.06266 17.3624 9.16143 17.5383 9.33725C17.7141 9.51306 17.8128 9.75152 17.8128 10.0002Z" fill="#018EAA"/>
</svg>
