<svg width="24" height="24" viewBox="0 0 24 24" fill="none" xmlns="http://www.w3.org/2000/svg">
<path d="M21.3758 12C21.3758 12.2984 21.2573 12.5845 21.0463 12.7955C20.8353 13.0065 20.5492 13.125 20.2508 13.125H6.46956L11.2977 17.9531C11.4026 18.0576 11.4858 18.1818 11.5426 18.3186C11.5993 18.4553 11.6286 18.6019 11.6286 18.75C11.6286 18.8981 11.5993 19.0447 11.5426 19.1814C11.4858 19.3182 11.4026 19.4424 11.2977 19.5469C11.0854 19.7564 10.7991 19.8739 10.5008 19.8739C10.2025 19.8739 9.91623 19.7564 9.70394 19.5469L2.95393 12.7969C2.84905 12.6924 2.76584 12.5682 2.70906 12.4314C2.65228 12.2947 2.62305 12.1481 2.62305 12C2.62305 11.8519 2.65228 11.7053 2.70906 11.5686C2.76584 11.4318 2.84905 11.3076 2.95393 11.2031L9.70394 4.45312C9.91528 4.24178 10.2019 4.12305 10.5008 4.12305C10.6488 4.12305 10.7953 4.1522 10.9321 4.20883C11.0688 4.26547 11.193 4.34848 11.2977 4.45312C11.4023 4.55777 11.4853 4.682 11.542 4.81873C11.5986 4.95546 11.6278 5.102 11.6278 5.25C11.6278 5.39799 11.5986 5.54454 11.542 5.68126C11.4853 5.81799 11.4023 5.94223 11.2977 6.04687L6.46956 10.875H20.2508C20.5492 10.875 20.8353 10.9935 21.0463 11.2045C21.2573 11.4155 21.3758 11.7016 21.3758 12Z" fill="white"/>
</svg>
