<svg width="20" height="20" viewBox="0 0 20 20" fill="none" xmlns="http://www.w3.org/2000/svg">
<path d="M17.2733 15C17.1639 15.1911 17.0057 15.3496 16.8149 15.4595C16.6241 15.5693 16.4075 15.6264 16.1874 15.625H3.81239C3.59224 15.6264 3.37566 15.5693 3.18485 15.4595C2.99404 15.3496 2.83584 15.1911 2.72645 15C2.61489 14.8089 2.55675 14.5913 2.55813 14.37C2.5595 14.1487 2.62034 13.9319 2.73427 13.7422C3.1952 12.9453 3.74989 11.4297 3.74989 8.75V8.125C3.74886 7.30395 3.90982 6.49077 4.22355 5.73202C4.53728 4.97327 4.99761 4.28387 5.57818 3.70329C6.15875 3.12272 6.84815 2.66239 7.6069 2.34866C8.36565 2.03494 9.17884 1.87398 9.99989 1.875H10.0468C13.4686 1.89844 16.2499 4.73438 16.2499 8.19532V8.75C16.2499 11.4297 16.8046 12.9453 17.2655 13.7422C17.3794 13.9319 17.4403 14.1487 17.4416 14.37C17.443 14.5913 17.3849 14.8089 17.2733 15ZM12.4921 16.875H7.49208C7.32632 16.875 7.16735 16.9409 7.05014 17.0581C6.93292 17.1753 6.86708 17.3342 6.86708 17.5C6.86708 17.6658 6.93292 17.8247 7.05014 17.9419C7.16735 18.0592 7.32632 18.125 7.49208 18.125H12.4921C12.6578 18.125 12.8168 18.0592 12.934 17.9419C13.0512 17.8247 13.1171 17.6658 13.1171 17.5C13.1171 17.3342 13.0512 17.1753 12.934 17.0581C12.8168 16.9409 12.4921 16.875 12.4921 16.875Z" fill="#018EAA"/>
<circle cx="15" cy="5" r="2" fill="#FF6565"/>
</svg>
