<svg width="20" height="20" viewBox="0 0 20 20" fill="none" xmlns="http://www.w3.org/2000/svg">
<path d="M16.25 3.75H3.75C3.25335 3.75206 2.77763 3.95026 2.42645 4.30145C2.07526 4.65263 1.87706 5.12835 1.875 5.625V14.375C1.87706 14.8716 2.07526 15.3474 2.42645 15.6986C2.77763 16.0497 3.25335 16.2479 3.75 16.25H16.25C16.7466 16.2479 17.2224 16.0497 17.5736 15.6986C17.9247 15.3474 18.1229 14.8716 18.125 14.375V5.625C18.1229 5.12835 17.9247 4.65263 17.5736 4.30145C17.2224 3.95026 16.7466 3.75206 16.25 3.75ZM16.875 8.75H13.0625C12.7745 8.75104 12.4955 8.85092 12.2722 9.03293C12.049 9.21494 11.895 9.46807 11.8359 9.75C11.7484 10.1722 11.518 10.5513 11.1836 10.8235C10.8492 11.0957 10.4312 11.2443 10 11.2443C9.56883 11.2443 9.15083 11.0957 8.81641 10.8235C8.482 10.5513 8.25162 10.1722 8.16406 9.75C8.10502 9.46807 7.95101 9.21494 7.72776 9.03293C7.5045 8.85092 7.22554 8.75104 6.9375 8.75H3.125V7.5H16.875V8.75ZM16.875 6.25H3.125V5.625C3.125 5.45924 3.19085 5.30027 3.30806 5.18306C3.42527 5.06585 3.58424 5 3.75 5H16.25C16.4158 5 16.5747 5.06585 16.6919 5.18306C16.8092 5.30027 16.875 5.45924 16.875 5.625V6.25Z" fill="#018EAA"/>
</svg>
