<svg width="20" height="20" viewBox="0 0 20 20" fill="none" xmlns="http://www.w3.org/2000/svg">
<path d="M16.875 5.625H14.1406C14.5343 5.12788 14.7243 4.49973 14.6723 3.86776C14.6202 3.23579 14.3299 2.64721 13.8602 2.2212C13.3905 1.79519 12.7765 1.56359 12.1425 1.57329C11.5084 1.58299 10.9018 1.83327 10.4453 2.27344C10.2612 2.45983 10.1105 2.67654 10 2.91407C9.88945 2.67654 9.73881 2.45983 9.55469 2.27344C9.09824 1.83327 8.49157 1.58299 7.85753 1.57329C7.22349 1.56359 6.60946 1.79519 6.13976 2.2212C5.67006 2.64721 5.37979 3.23579 5.32773 3.86776C5.27567 4.49973 5.46572 5.12788 5.85938 5.625H3.125C2.79348 5.625 2.47554 5.7567 2.24112 5.99112C2.0067 6.22554 1.875 6.54348 1.875 6.875V9.375C1.875 9.70652 2.0067 10.0245 2.24112 10.2589C2.47554 10.4933 2.79348 10.625 3.125 10.625V15.625C3.125 15.9565 3.2567 16.2745 3.49112 16.5089C3.72554 16.7433 4.04348 16.875 4.375 16.875H15.625C15.9565 16.875 16.2745 16.7433 16.5089 16.5089C16.7433 16.2745 16.875 15.9565 16.875 15.625V10.625C17.2065 10.625 17.5245 10.4933 17.7589 10.2589C17.9933 10.0245 18.125 9.70652 18.125 9.375V6.875C18.125 6.54348 17.9933 6.22554 17.7589 5.99112C17.5245 5.7567 17.2065 5.625 16.875 5.625ZM11.3281 3.15625C11.4418 3.03077 11.5798 2.9297 11.7338 2.85916C11.8877 2.78863 12.0544 2.75011 12.2237 2.74595C12.3929 2.74178 12.5613 2.77205 12.7185 2.83492C12.8758 2.89779 13.0186 2.99195 13.1383 3.11168C13.2581 3.23142 13.3522 3.37423 13.4151 3.53146C13.478 3.68869 13.5082 3.85705 13.5041 4.02633C13.4999 4.19562 13.4614 4.36228 13.3908 4.51623C13.3203 4.67017 13.2192 4.80818 13.0938 4.92188C12.7109 5.3125 11.5938 5.52344 10.6484 5.60157C10.7266 4.65625 10.9375 3.53907 11.3281 3.15625ZM6.90625 3.15625C7.14158 2.92438 7.45869 2.79439 7.78906 2.79439C8.11944 2.79439 8.43655 2.92438 8.67188 3.15625C9.0625 3.53907 9.27344 4.65625 9.35156 5.60157C8.40625 5.52344 7.28906 5.3125 6.90625 4.92188C6.67437 4.68655 6.54439 4.36944 6.54439 4.03907C6.54439 3.70869 6.67437 3.39158 6.90625 3.15625ZM3.125 6.875H9.375V9.375H3.125V6.875ZM4.375 10.625H9.375V15.625H4.375V10.625ZM15.625 15.625H10.625V10.625H15.625V15.625ZM16.875 9.375H10.625V6.875H16.875V9.375Z" fill="#018EAA"/>
<path opacity="0.2" d="M17.1484 6.13281V8.59374L16.25 15.2812C16.25 15.5382 16.1842 15.7846 16.0669 15.9662C15.9497 16.1479 15.7908 16.25 15.625 16.25H4.375C4.20924 16.25 4.05027 16.1479 3.93306 15.9662C3.81585 15.7846 3.75 15.5382 3.75 15.2812L2.92969 9.02344L2.57812 6.91406L3.63281 5.9375L17.1484 6.13281Z" fill="#018EAA"/>
</svg>
