<svg width="50" height="34" viewBox="0 0 50 34" fill="none" xmlns="http://www.w3.org/2000/svg">
<path d="M33.4 11.2727H17.4C17.1878 11.2727 16.9843 11.1865 16.8343 11.0331C16.6843 10.8796 16.6 10.6715 16.6 10.4545C16.6 10.2376 16.6843 10.0294 16.8343 9.876C16.9843 9.72256 17.1878 9.63636 17.4 9.63636H31C31.2122 9.63636 31.4157 9.55016 31.5657 9.39672C31.7157 9.24328 31.8 9.03518 31.8 8.81818C31.8 8.60119 31.7157 8.39308 31.5657 8.23964C31.4157 8.0862 31.2122 8 31 8H17.4C16.7643 8.00269 16.1554 8.26216 15.7059 8.72189C15.2563 9.18163 15.0026 9.80439 15 10.4545V23.5455C15.0026 24.1956 15.2563 24.8184 15.7059 25.2781C16.1554 25.7378 16.7643 25.9973 17.4 26H33.4C33.8243 26 34.2313 25.8276 34.5314 25.5207C34.8314 25.2138 35 24.7976 35 24.3636V12.9091C35 12.4751 34.8314 12.0589 34.5314 11.752C34.2313 11.4451 33.8243 11.2727 33.4 11.2727ZM29.8 19.8636C29.5627 19.8636 29.3307 19.7917 29.1333 19.6568C28.936 19.5219 28.7822 19.3303 28.6913 19.106C28.6005 18.8818 28.5768 18.635 28.6231 18.3969C28.6694 18.1589 28.7836 17.9402 28.9515 17.7686C29.1193 17.5969 29.3331 17.48 29.5659 17.4327C29.7987 17.3853 30.0399 17.4096 30.2592 17.5025C30.4785 17.5954 30.6659 17.7527 30.7978 17.9545C30.9296 18.1564 31 18.3936 31 18.6364C31 18.9619 30.8736 19.274 30.6485 19.5042C30.4235 19.7343 30.1183 19.8636 29.8 19.8636Z" fill="#D9D9D9"/>
</svg>
